<svg width="816" height="685" viewBox="0 0 816 685" fill="none" xmlns="http://www.w3.org/2000/svg">
<path d="M710.183 139.864C713.601 143.42 716.726 147.214 719.541 151.246L718.311 152.105C719.694 154.086 721.002 156.126 722.231 158.224C723.46 160.323 724.6 162.46 725.652 164.635L727.003 163.982C729.144 168.41 730.925 172.991 732.356 177.711L730.921 178.146C732.314 182.742 733.37 187.474 734.098 192.332L735.581 192.109C736.298 196.891 736.699 201.788 736.794 206.788L735.295 206.816C735.385 211.584 735.194 216.451 734.726 221.406L736.219 221.547C735.768 226.335 735.061 231.2 734.106 236.133L732.634 235.848C731.728 240.527 730.597 245.271 729.244 250.072L730.688 250.479C729.38 255.122 727.868 259.815 726.156 264.55L724.745 264.04C723.117 268.543 721.306 273.087 719.317 277.664L720.693 278.262C718.772 282.683 716.687 287.133 714.44 291.607L713.1 290.934C710.944 295.228 708.638 299.545 706.186 303.88L707.492 304.619C705.11 308.831 702.591 313.059 699.938 317.297L698.667 316.502C696.107 320.592 693.422 324.693 690.614 328.801L691.852 329.647C689.115 333.652 686.262 337.663 683.295 341.675L682.089 340.783C679.213 344.674 676.229 348.566 673.141 352.458L674.315 353.39C671.294 357.197 668.173 361.002 664.954 364.802L663.81 363.832C660.675 367.532 657.448 371.227 654.13 374.915L655.245 375.918C651.989 379.537 648.645 383.148 645.216 386.749L644.13 385.714C640.779 389.233 637.347 392.742 633.834 396.238L634.892 397.301C631.435 400.741 627.902 404.168 624.293 407.581L623.262 406.491C619.724 409.836 616.114 413.166 612.432 416.48L613.435 417.595C609.804 420.863 606.104 424.114 602.336 427.347L601.359 426.209C597.663 429.38 593.902 432.533 590.077 435.665L591.027 436.826C587.251 439.918 583.414 442.99 579.516 446.04L578.592 444.859C574.753 447.863 570.856 450.845 566.901 453.804L567.8 455.005C563.884 457.934 559.913 460.84 555.887 463.722L555.014 462.502C551.042 465.344 547.017 468.162 542.94 470.953L543.787 472.191C539.745 474.959 535.651 477.7 531.508 480.414L530.686 479.159C526.604 481.833 522.473 484.48 518.295 487.098L519.092 488.369C514.946 490.966 510.753 493.536 506.516 496.076L505.745 494.789C503.636 496.053 501.516 497.309 499.385 498.557C497.254 499.806 495.121 501.041 492.988 502.262L493.733 503.564C489.446 506.019 485.155 508.42 480.862 510.766L480.142 509.45C475.816 511.815 471.487 514.124 467.159 516.377L467.852 517.708C463.459 519.995 459.066 522.225 454.675 524.398L454.01 523.054C449.581 525.246 445.155 527.38 440.734 529.455L441.371 530.812C436.889 532.916 432.412 534.959 427.943 536.942L427.334 535.571C422.82 537.574 418.313 539.516 413.816 541.396L414.394 542.779C409.828 544.688 405.271 546.534 400.728 548.315L400.18 546.919C395.577 548.724 390.988 550.463 386.414 552.137L386.93 553.546C382.268 555.252 377.622 556.89 372.996 558.46L372.514 557.039C367.823 558.631 363.153 560.152 358.505 561.602L358.952 563.034C354.211 564.514 349.493 565.921 344.802 567.254L344.392 565.811C339.625 567.166 334.886 568.445 330.178 569.648L330.549 571.101C325.732 572.331 320.947 573.482 316.198 574.554L315.868 573.09C311.029 574.182 306.228 575.19 301.468 576.115L301.754 577.587C296.866 578.537 292.02 579.4 287.222 580.174L286.983 578.693C282.079 579.485 277.224 580.184 272.424 580.791L272.612 582.279C267.662 582.905 262.768 583.433 257.936 583.863L257.803 582.369C252.847 582.81 247.957 583.147 243.138 583.38L243.21 584.878C238.215 585.119 233.296 585.25 228.457 585.268L228.451 583.768C223.471 583.787 218.577 583.688 213.777 583.469L213.709 584.967C208.708 584.739 203.806 584.383 199.011 583.897L199.162 582.404C194.197 581.901 189.348 581.259 184.623 580.477L184.378 581.957C179.411 581.136 174.578 580.161 169.888 579.031L170.239 577.573C165.39 576.406 160.699 575.073 156.174 573.575L155.703 574.999C150.933 573.42 146.343 571.657 141.946 569.71L142.553 568.339C138.002 566.324 133.663 564.111 129.548 561.701L128.79 562.996C124.475 560.468 120.4 557.723 116.579 554.76L117.498 553.575C113.617 550.565 110.005 547.33 106.678 543.868L105.596 544.907C102.178 541.351 99.0534 537.557 96.2377 533.525L97.4676 532.666C96.0845 530.685 94.7772 528.645 93.5478 526.547C92.3185 524.449 91.1785 522.311 90.1267 520.136L88.7763 520.789C86.6351 516.361 84.8537 511.78 83.4228 507.06L84.8583 506.625C83.4652 502.029 82.4087 497.297 81.681 492.44L80.1975 492.662C79.4812 487.88 79.0795 482.983 78.9845 477.983L80.4842 477.955C80.3936 473.187 80.5852 468.32 81.0529 463.365L79.5596 463.224C80.0114 458.437 80.7178 453.571 81.6724 448.638L83.1451 448.923C84.0505 444.244 85.182 439.5 86.5345 434.699L85.0907 434.292C86.3988 429.649 87.9112 424.956 89.6232 420.222L91.0338 420.732C92.662 416.228 94.4727 411.684 96.4617 407.107L95.086 406.509C97.0068 402.088 99.0923 397.638 101.339 393.164L102.679 393.837C104.835 389.543 107.141 385.226 109.593 380.891L108.287 380.152C110.669 375.94 113.188 371.712 115.841 367.474L117.112 368.269C119.672 364.179 122.357 360.078 125.165 355.971L123.926 355.124C126.664 351.119 129.517 347.109 132.484 343.096L133.69 343.988C136.566 340.097 139.55 336.205 142.638 332.314L141.463 331.381C144.485 327.574 147.606 323.769 150.825 319.97L151.969 320.939C155.103 317.239 158.331 313.544 161.649 309.856L160.534 308.853C163.79 305.234 167.134 301.623 170.562 298.022L171.649 299.057C175 295.538 178.432 292.029 181.945 288.534L180.887 287.47C184.343 284.03 187.877 280.603 191.486 277.19L192.517 278.28C196.055 274.935 199.665 271.605 203.347 268.292L202.344 267.177C205.975 263.908 209.675 260.657 213.443 257.424L214.42 258.563C218.116 255.391 221.877 252.238 225.702 249.106L224.752 247.945C228.528 244.853 232.365 241.781 236.263 238.731L237.187 239.912C241.026 236.908 244.923 233.926 248.878 230.967L247.979 229.766C251.895 226.837 255.866 223.931 259.892 221.05L260.765 222.269C264.737 219.427 268.762 216.609 272.839 213.818L271.992 212.58C276.034 209.813 280.128 207.071 284.271 204.357L285.093 205.612C289.175 202.938 293.306 200.292 297.484 197.674L296.687 196.403C300.833 193.805 305.025 191.235 309.263 188.696L310.034 189.982C312.143 188.719 314.263 187.462 316.394 186.214C318.525 184.965 320.658 183.73 322.791 182.509L322.045 181.207C326.333 178.752 330.624 176.351 334.917 174.005L335.637 175.321C339.963 172.957 344.291 170.647 348.62 168.394L347.927 167.064C352.32 164.776 356.713 162.546 361.104 160.373L361.769 161.717C366.198 159.525 370.624 157.392 375.045 155.317L374.408 153.959C378.89 151.855 383.367 149.812 387.836 147.829L388.444 149.2C392.959 147.197 397.466 145.255 401.963 143.376L401.385 141.992C405.951 140.083 410.508 138.238 415.051 136.456L415.599 137.852C420.202 136.047 424.791 134.308 429.365 132.634L428.849 131.226C433.511 129.52 438.157 127.881 442.783 126.312L443.265 127.732C447.956 126.141 452.626 124.619 457.274 123.169L456.827 121.737C461.568 120.257 466.286 118.85 470.977 117.517L471.387 118.96C476.154 117.605 480.893 116.326 485.601 115.124L485.23 113.67C490.047 112.44 494.832 111.289 499.581 110.218L499.911 111.681C504.75 110.589 509.551 109.581 514.311 108.656L514.025 107.184C518.913 106.234 523.759 105.372 528.557 104.597L528.796 106.078C533.7 105.286 538.554 104.587 543.355 103.98L543.166 102.492C548.117 101.866 553.011 101.338 557.843 100.908L557.976 102.402C562.932 101.961 567.822 101.624 572.641 101.391L572.569 99.8932C577.563 99.6517 582.483 99.5215 587.322 99.5029L587.328 101.003C592.308 100.984 597.202 101.084 602.002 101.302L602.07 99.8039C607.071 100.032 611.972 100.389 616.768 100.874L616.617 102.367C621.582 102.87 626.431 103.512 631.156 104.294L631.401 102.814C636.368 103.635 641.201 104.611 645.891 105.74L645.54 107.198C650.389 108.366 655.08 109.698 659.605 111.196L660.076 109.772C664.846 111.352 669.436 113.114 673.833 115.061L673.226 116.432C677.777 118.447 682.116 120.66 686.231 123.07L686.989 121.775C691.304 124.303 695.379 127.048 699.2 130.011L698.281 131.196C702.162 134.206 705.774 137.441 709.101 140.903L710.183 139.864Z" stroke="#931BCC" stroke-width="3" stroke-dasharray="15 15"/>
<path d="M704.648 170.296L700.872 158.68C697.904 149.55 690.746 142.392 681.616 139.424L670 135.648L681.616 131.872C690.746 128.904 697.904 121.746 700.872 112.616L704.648 101L708.424 112.616C711.392 121.746 718.55 128.904 727.68 131.872L739.296 135.648L727.68 139.424C718.55 142.392 711.392 149.55 708.424 158.68L704.648 170.296Z" fill="#931BCC"/>
</svg>
