<svg width="262" height="271" viewBox="0 0 262 271" fill="none" xmlns="http://www.w3.org/2000/svg">
<path d="M34.6484 69.2965L38.4245 57.6804C41.3924 48.5504 48.5505 41.3922 57.6805 38.4243L69.2967 34.6483L57.6805 30.8722C48.5505 27.9043 41.3924 20.7462 38.4245 11.6162L34.6484 4.54187e-05L30.8724 11.6162C27.9045 20.7462 20.7463 27.9043 11.6163 30.8722L0.000205815 34.6483L11.6163 38.4243C20.7463 41.3922 27.9045 48.5504 30.8724 57.6804L34.6484 69.2965Z" fill="#931BCC"/>
<line y1="-1.5" x2="171" y2="-1.5" transform="matrix(-4.37113e-08 -1 -1 4.37113e-08 32 270.297)" stroke="#931BCC" stroke-width="3" stroke-dasharray="15 15"/>
<line y1="-1.5" x2="171" y2="-1.5" transform="matrix(1 0 0 -1 91 33)" stroke="#931BCC" stroke-width="3" stroke-dasharray="15 15"/>
</svg>
