<svg width="826" height="685" viewBox="0 0 826 685" fill="none" xmlns="http://www.w3.org/2000/svg">
<path d="M720.183 139.864C723.601 143.42 726.726 147.214 729.541 151.246L728.311 152.105C729.694 154.086 731.002 156.126 732.231 158.224C733.46 160.323 734.6 162.46 735.652 164.635L737.003 163.982C739.144 168.41 740.925 172.991 742.356 177.711L740.921 178.146C742.314 182.742 743.37 187.474 744.098 192.332L745.581 192.109C746.298 196.891 746.699 201.788 746.794 206.788L745.295 206.816C745.385 211.584 745.194 216.451 744.726 221.406L746.219 221.547C745.768 226.335 745.061 231.2 744.106 236.133L742.634 235.848C741.728 240.527 740.597 245.271 739.244 250.072L740.688 250.479C739.38 255.122 737.868 259.815 736.156 264.55L734.745 264.04C733.117 268.543 731.306 273.087 729.317 277.664L730.693 278.262C728.772 282.683 726.687 287.133 724.44 291.607L723.1 290.934C720.944 295.228 718.638 299.545 716.186 303.88L717.492 304.619C715.11 308.831 712.591 313.059 709.938 317.297L708.667 316.502C706.107 320.592 703.422 324.693 700.614 328.801L701.852 329.647C699.115 333.652 696.262 337.663 693.295 341.675L692.089 340.783C689.213 344.674 686.229 348.566 683.141 352.458L684.315 353.39C681.294 357.197 678.173 361.002 674.954 364.802L673.81 363.832C670.675 367.532 667.448 371.227 664.13 374.915L665.245 375.918C661.989 379.537 658.645 383.148 655.216 386.749L654.13 385.714C650.779 389.233 647.347 392.742 643.834 396.238L644.892 397.301C641.435 400.741 637.902 404.168 634.293 407.581L633.262 406.491C629.724 409.836 626.114 413.166 622.432 416.48L623.435 417.595C619.804 420.863 616.104 424.114 612.336 427.347L611.359 426.209C607.663 429.38 603.902 432.533 600.077 435.665L601.027 436.826C597.251 439.918 593.414 442.99 589.516 446.04L588.592 444.859C584.753 447.863 580.856 450.845 576.901 453.804L577.8 455.005C573.884 457.934 569.913 460.84 565.887 463.722L565.014 462.502C561.042 465.344 557.017 468.162 552.94 470.953L553.787 472.191C549.745 474.959 545.651 477.7 541.508 480.414L540.686 479.159C536.604 481.833 532.473 484.48 528.295 487.098L529.092 488.369C524.946 490.966 520.753 493.536 516.516 496.076L515.745 494.789C513.636 496.053 511.516 497.309 509.385 498.557C507.254 499.806 505.121 501.041 502.988 502.262L503.733 503.564C499.446 506.019 495.155 508.42 490.862 510.766L490.142 509.45C485.816 511.815 481.487 514.124 477.159 516.377L477.852 517.708C473.459 519.995 469.066 522.225 464.675 524.398L464.01 523.054C459.581 525.246 455.155 527.38 450.734 529.455L451.371 530.812C446.889 532.916 442.412 534.959 437.943 536.942L437.334 535.571C432.82 537.574 428.313 539.516 423.816 541.396L424.394 542.779C419.828 544.688 415.271 546.534 410.728 548.315L410.18 546.919C405.577 548.724 400.988 550.463 396.414 552.137L396.93 553.546C392.268 555.252 387.622 556.89 382.996 558.46L382.514 557.039C377.823 558.631 373.153 560.152 368.505 561.602L368.952 563.034C364.211 564.514 359.493 565.921 354.802 567.254L354.392 565.811C349.625 567.166 344.886 568.445 340.178 569.648L340.549 571.101C335.732 572.331 330.947 573.482 326.198 574.554L325.868 573.09C321.029 574.182 316.228 575.19 311.468 576.115L311.754 577.587C306.866 578.537 302.02 579.4 297.222 580.174L296.983 578.693C292.079 579.485 287.224 580.184 282.424 580.791L282.612 582.279C277.662 582.905 272.768 583.433 267.936 583.863L267.803 582.369C262.847 582.81 257.957 583.147 253.138 583.38L253.21 584.878C248.215 585.119 243.296 585.25 238.457 585.268L238.451 583.768C233.471 583.787 228.577 583.688 223.777 583.469L223.709 584.967C218.708 584.739 213.806 584.383 209.011 583.897L209.162 582.404C204.197 581.901 199.348 581.259 194.623 580.477L194.378 581.957C189.411 581.136 184.578 580.161 179.888 579.031L180.239 577.573C175.39 576.406 170.699 575.073 166.174 573.575L165.703 574.999C160.933 573.42 156.343 571.657 151.946 569.71L152.553 568.339C148.002 566.324 143.663 564.111 139.548 561.701L138.79 562.996C134.475 560.468 130.4 557.723 126.579 554.76L127.498 553.575C123.617 550.565 120.005 547.33 116.678 543.868L115.596 544.907C112.178 541.351 109.053 537.557 106.238 533.525L107.468 532.666C106.084 530.685 104.777 528.645 103.548 526.547C102.318 524.449 101.178 522.311 100.127 520.136L98.7763 520.789C96.6351 516.361 94.8537 511.78 93.4228 507.06L94.8583 506.625C93.4652 502.029 92.4087 497.297 91.681 492.44L90.1975 492.662C89.4812 487.88 89.0795 482.983 88.9845 477.983L90.4842 477.955C90.3936 473.187 90.5852 468.32 91.0529 463.365L89.5596 463.224C90.0114 458.437 90.7178 453.571 91.6724 448.638L93.1451 448.923C94.0505 444.244 95.182 439.5 96.5345 434.699L95.0907 434.292C96.3988 429.649 97.9112 424.956 99.6232 420.222L101.034 420.732C102.662 416.228 104.473 411.684 106.462 407.107L105.086 406.509C107.007 402.088 109.092 397.638 111.339 393.164L112.679 393.837C114.835 389.543 117.141 385.226 119.593 380.891L118.287 380.152C120.669 375.94 123.188 371.712 125.841 367.474L127.112 368.269C129.672 364.179 132.357 360.078 135.165 355.971L133.926 355.124C136.664 351.119 139.517 347.109 142.484 343.096L143.69 343.988C146.566 340.097 149.55 336.205 152.638 332.314L151.463 331.381C154.485 327.574 157.606 323.769 160.825 319.97L161.969 320.939C165.103 317.239 168.331 313.544 171.649 309.856L170.534 308.853C173.79 305.234 177.134 301.623 180.562 298.022L181.649 299.057C185 295.538 188.432 292.029 191.945 288.534L190.887 287.47C194.343 284.03 197.877 280.603 201.486 277.19L202.517 278.28C206.055 274.935 209.665 271.605 213.347 268.292L212.344 267.177C215.975 263.908 219.675 260.657 223.443 257.424L224.42 258.563C228.116 255.391 231.877 252.238 235.702 249.106L234.752 247.945C238.528 244.853 242.365 241.781 246.263 238.731L247.187 239.912C251.026 236.908 254.923 233.926 258.878 230.967L257.979 229.766C261.895 226.837 265.866 223.931 269.892 221.05L270.765 222.269C274.737 219.427 278.762 216.609 282.839 213.818L281.992 212.58C286.034 209.813 290.128 207.071 294.271 204.357L295.093 205.612C299.175 202.938 303.306 200.292 307.484 197.674L306.687 196.403C310.833 193.805 315.025 191.235 319.263 188.696L320.034 189.982C322.143 188.719 324.263 187.462 326.394 186.214C328.525 184.965 330.658 183.73 332.791 182.509L332.045 181.207C336.333 178.752 340.624 176.351 344.917 174.005L345.637 175.321C349.963 172.957 354.291 170.647 358.62 168.394L357.927 167.064C362.32 164.776 366.713 162.546 371.104 160.373L371.769 161.717C376.198 159.525 380.624 157.392 385.045 155.317L384.408 153.959C388.89 151.855 393.367 149.812 397.836 147.829L398.444 149.2C402.959 147.197 407.466 145.255 411.963 143.376L411.385 141.992C415.951 140.083 420.508 138.238 425.051 136.456L425.599 137.852C430.202 136.047 434.791 134.308 439.365 132.634L438.849 131.226C443.511 129.52 448.157 127.881 452.783 126.312L453.265 127.732C457.956 126.141 462.626 124.619 467.274 123.169L466.827 121.737C471.568 120.257 476.286 118.85 480.977 117.517L481.387 118.96C486.154 117.605 490.893 116.326 495.601 115.124L495.23 113.67C500.047 112.44 504.832 111.289 509.581 110.218L509.911 111.681C514.75 110.589 519.551 109.581 524.311 108.656L524.025 107.184C528.913 106.234 533.759 105.372 538.557 104.597L538.796 106.078C543.7 105.286 548.554 104.587 553.355 103.98L553.166 102.492C558.117 101.866 563.011 101.338 567.843 100.908L567.976 102.402C572.932 101.961 577.822 101.624 582.641 101.391L582.569 99.8932C587.563 99.6517 592.483 99.5215 597.322 99.5029L597.328 101.003C602.308 100.984 607.202 101.084 612.002 101.302L612.07 99.8039C617.071 100.032 621.972 100.389 626.768 100.874L626.617 102.367C631.582 102.87 636.431 103.512 641.156 104.294L641.401 102.814C646.368 103.635 651.201 104.611 655.891 105.74L655.54 107.198C660.389 108.366 665.08 109.698 669.605 111.196L670.076 109.772C674.846 111.352 679.436 113.114 683.833 115.061L683.226 116.432C687.777 118.447 692.116 120.66 696.231 123.07L696.989 121.775C701.304 124.303 705.379 127.048 709.2 130.011L708.281 131.196C712.162 134.206 715.774 137.441 719.101 140.903L720.183 139.864Z" stroke="#931BCC" stroke-width="3" stroke-dasharray="15 15"/>
<path d="M714.648 170.296L710.872 158.68C707.904 149.55 700.746 142.392 691.616 139.424L680 135.648L691.616 131.872C700.746 128.904 707.904 121.746 710.872 112.616L714.648 101L718.424 112.616C721.392 121.746 728.55 128.904 737.68 131.872L749.296 135.648L737.68 139.424C728.55 142.392 721.392 149.55 718.424 158.68L714.648 170.296Z" fill="#931BCC"/>
<path d="M247.5 16.5L757 216.5V543H0L247.5 16.5Z" fill="white"/>
</svg>
