<svg width="102" height="70" viewBox="0 0 102 70" fill="none" xmlns="http://www.w3.org/2000/svg">
<path d="M30.6 54.5255C30.1694 53.2832 29.6581 52.0409 29.066 50.7986C28.4739 49.5023 27.6665 47.7199 26.6438 45.4514L11.2227 11.0185H11.0612L9.44644 45.7755C9.39261 47.7739 9.85013 49.2863 10.819 50.3125C11.7879 51.3387 13.914 51.9059 17.1974 52.0139V53.8773H0V52.0139C2.09921 51.9059 3.55251 51.3387 4.35989 50.3125C5.22111 49.2863 5.67863 47.7739 5.73245 45.7755L7.58945 8.10185C7.6971 6.21142 7.56253 4.86111 7.18575 4.05093C6.8628 3.18673 6.18997 2.6196 5.16728 2.34954C4.14459 2.07947 2.61055 1.91744 0.565172 1.86343V0H14.2908C14.7214 1.40432 15.1789 2.72762 15.6633 3.9699C16.2016 5.21219 16.8206 6.5895 17.5203 8.10185L33.8296 44.0741H33.991L49.0084 8.10185C49.6005 6.69753 50.1119 5.34722 50.5425 4.05093C51.0269 2.70062 51.4575 1.35031 51.8343 0H64.591V1.86343C63.0839 1.91744 61.8997 2.07947 61.0385 2.34954C60.1773 2.6196 59.5852 3.18673 59.2623 4.05093C58.9931 4.86111 58.8855 6.21142 58.9393 8.10185L60.6348 45.7755C60.7425 47.6119 60.9847 48.9622 61.3615 49.8264C61.7383 50.6906 62.4111 51.2577 63.38 51.5278C64.4026 51.7438 65.8021 51.9059 67.5784 52.0139V53.8773H48.847V52.0139C50.1388 51.9059 51.1615 51.7438 51.915 51.5278C52.6686 51.2577 53.18 50.6906 53.4491 49.8264C53.772 48.9622 53.8797 47.6119 53.772 45.7755L52.238 10.4514H52.0765L37.3013 45.4514C36.3863 47.7199 35.6596 49.5023 35.1214 50.7986C34.6369 52.0409 34.2332 53.2832 33.9103 54.5255H30.6Z" fill="#231F20"/>
<path fill-rule="evenodd" clip-rule="evenodd" d="M57.8628 6.32393V15.0939H58.1918C58.2829 12.6511 58.8134 11.1152 59.7832 10.4861C60.9165 9.72861 62.6165 9.34989 64.8832 9.34989C67.3388 9.34989 69.6684 9.63393 71.8721 10.202C74.0758 10.7701 75.8703 11.8747 77.2555 13.5159C78.6407 15.0939 79.3333 17.4294 79.3333 20.5223C79.3333 25.067 77.6332 28.444 74.2332 30.6532C70.8332 32.8624 66.111 33.7146 60.0665 33.2096V36.05C60.7591 36.1132 61.2943 36.3025 61.6721 36.6181C62.1128 36.8706 62.7424 37.5018 63.561 38.5118L83.0166 62.4661C84.087 63.7917 85.2203 65.0225 86.4166 66.1587C87.6129 67.2949 89.0611 68.2102 90.7611 68.9045C92.4611 69.5988 94.6018 69.946 97.1833 69.946C97.9389 69.946 98.7259 69.9144 99.5444 69.8513C100.363 69.7882 101.181 69.6304 102 69.3779V67.2002C100.615 67.2002 99.4185 67.0108 98.4111 66.6321C97.4037 66.2534 96.3333 65.5275 95.2 64.4545C94.1296 63.3183 92.7129 61.7087 90.95 59.6257L71.3999 35.5766V35.3873C76.311 34.6298 80.3407 32.894 83.4888 30.1798C86.6999 27.4656 88.3055 24.0255 88.3055 19.8595C88.3055 15.8198 86.6055 12.5059 83.2055 9.91797C79.8684 7.2669 74.611 5.94136 67.4332 5.94136C65.2925 5.94136 62.9628 6.03604 60.4443 6.2254C59.6701 6.26421 58.8096 6.29705 57.8628 6.32393Z" fill="#231F20"/>
</svg>
